<?xml version="1.0" standalone="no"?>
<!DOCTYPE svg PUBLIC "-//W3C//DTD SVG 20010904//EN"
 "http://www.w3.org/TR/2001/REC-SVG-20010904/DTD/svg10.dtd">
<svg version="1.0" xmlns="http://www.w3.org/2000/svg"
 width="260.000000pt" height="260.000000pt" viewBox="0 0 260.000000 260.000000"
 preserveAspectRatio="xMidYMid meet">
<metadata>
Created by potrace 1.11, written by Peter Selinger 2001-2013
</metadata>
<g transform="translate(0.000000,260.000000) scale(0.100000,-0.100000)"
fill="#000000" stroke="none">
<path d="M1250 2483 c-34 -14 -63 -62 -58 -99 3 -23 -25 -41 -387 -249 -292
-168 -393 -221 -405 -215 -37 20 -69 18 -102 -4 -59 -39 -63 -105 -8 -155 l29
-26 1 -438 0 -438 -40 -38 c-33 -31 -40 -45 -40 -75 0 -53 44 -96 98 -96 23 0
45 6 52 15 7 9 20 13 28 10 8 -3 186 -104 397 -225 352 -203 382 -222 378
-244 -12 -60 54 -114 122 -102 42 8 78 56 72 98 -3 24 6 32 122 99 69 40 151
87 181 105 30 17 149 86 263 152 l208 119 39 -13 c47 -16 78 -7 109 32 33 42
28 90 -13 128 l-34 31 0 443 0 442 29 20 c56 41 47 134 -16 164 -29 14 -39 15
-73 3 -36 -13 -43 -12 -78 8 -22 12 -197 113 -390 224 -300 172 -351 205 -347
222 7 27 -15 75 -43 94 -23 15 -66 19 -94 8z m20 -370 c0 -169 -1 -182 -19
-188 -31 -9 -52 -40 -55 -81 -3 -39 -4 -39 -150 -125 l-147 -86 -40 20 c-39
19 -39 19 -78 0 l-40 -20 -148 86 c-146 85 -148 86 -148 121 0 45 5 51 57 78
24 12 194 109 378 215 333 193 334 194 362 178 l28 -16 0 -182z m430 22 c479
-275 435 -246 435 -289 1 -20 -4 -41 -10 -46 -5 -4 -73 -44 -150 -89 -120 -68
-142 -78 -155 -66 -25 22 -75 25 -107 5 l-29 -17 -149 86 c-124 71 -149 90
-147 107 5 34 -16 74 -48 92 l-30 17 0 180 0 180 28 16 c25 15 29 15 57 -1 17
-10 154 -89 305 -175z m-1138 -441 c73 -43 138 -82 145 -88 6 -6 14 -26 16
-44 7 -42 31 -79 56 -87 17 -5 21 -16 23 -78 2 -40 2 -118 0 -175 -3 -98 -4
-103 -27 -112 -30 -11 -59 -65 -51 -94 5 -20 -12 -32 -151 -113 -155 -89 -157
-90 -185 -74 -15 9 -28 23 -29 31 0 8 -1 209 -2 445 l-2 430 35 17 c19 9 36
17 37 17 1 1 62 -33 135 -75z m674 61 c37 -19 71 -19 108 0 27 14 31 13 85
-19 31 -18 76 -45 101 -59 137 -76 139 -77 135 -99 -6 -30 22 -83 50 -96 14
-7 25 -17 26 -24 0 -19 1 -289 0 -314 -1 -11 -12 -27 -25 -34 -30 -15 -56 -65
-50 -95 3 -20 -15 -34 -147 -109 l-151 -87 -37 14 c-31 13 -42 13 -78 1 l-41
-14 -151 87 c-134 77 -150 89 -145 109 7 29 -21 82 -51 96 -22 10 -25 18 -25
67 -1 31 -2 109 -3 173 l-2 118 28 11 c34 14 56 54 51 92 -2 21 3 30 19 37 12
5 78 43 147 84 69 41 126 75 126 76 1 0 15 -7 30 -15z m954 -3 l35 -17 -1
-430 c-1 -237 -2 -435 -3 -441 0 -6 -16 -18 -35 -27 l-35 -16 -143 83 -143 82
-7 43 c-8 47 -29 77 -59 86 -18 6 -19 19 -19 180 0 164 1 174 20 180 28 9 58
55 62 95 3 32 10 38 143 116 77 45 142 83 145 83 3 1 21 -7 40 -17z m-1349
-822 c17 5 36 13 42 19 8 6 61 -19 164 -77 123 -70 151 -90 147 -105 -9 -30
16 -86 47 -104 l29 -17 0 -176 0 -175 -28 -16 c-28 -16 -29 -15 -302 143 -151
87 -327 188 -391 225 -113 65 -116 67 -115 100 1 32 6 36 154 122 l154 88 34
-18 c26 -13 43 -15 65 -9z m912 -5 c12 -1 36 6 53 16 l32 17 149 -85 149 -86
-1 -41 -1 -41 -300 -173 c-503 -289 -465 -270 -497 -252 l-27 15 0 176 0 176
26 13 c31 17 54 59 54 99 0 27 10 35 147 114 140 80 149 84 171 69 12 -8 33
-16 45 -17z"/>
</g>
</svg>
